. 
 
http://www.torrenting.com          :     Once & For all ;)


               www . Torrenting . Com 

(((((((((((((= Enjoy No RAR releases =))))))))))))))))))))


...................................NFO:....................................

.                                             
                               
                                 
                                      
                                      
                                       
    CoaX!&lt;CPH&gt;                         
                               
                         
                            
          
    Team FiCO &lt;Final Coalition&gt; 2k8 Presents:    
    

Thrive.2011.BDRip.XviD-FiCO 
http://www.imdb.com/title/tt2063834/
Subtitles: 
Date: 2012.01.22

Director: Steve Gagn, Kimberly Carter Gamble
Genre: Documentary 
Plot: An unconventional documentary that lifts the veil on what's
really going on in our world by following the money upstream. 


Cast
Lane Andrews 	... 	
Herself
Dwynne Arnesson 	Dwynne Arnesson 	... 	
Himself (archive footage) (as Col. Dwynne Arnesson)
John Bedini 	John Bedini 	... 	
Himself
John Callahan 	John Callahan 	... 	
Himself (archive footage)
Deepak Chopra 	Deepak Chopra 	... 	
Himself
Frank Doran 	Frank Doran 	... 	
Himself (archive footage)
Albert Einstein 	Albert Einstein 	... 	
Himself (archive footage)
Duane Elgin 	Duane Elgin 	... 	
Himself
Catherine Austin Fitts 	Catherine Austin Fitts 	... 	
Herself
R. Buckminster Fuller 	R. Buckminster Fuller 	... 	
Himself (archive footage)
Foster Gamble 	Foster Gamble 	... 	
Himself
Kimberly Carter Gamble 	Kimberly Carter Gamble 	... 	
Herself
John Gatto 	John Gatto 	... 	
Himself
James Gilliland 	James Gilliland 	... 	
Himself
Amy Goodman 	Amy Goodman 	... 	
Herself
Full cast and crew  

Stats:
General
Format                                   : AVI
Format/Info                              : Audio Video Interleave
File size                                : 1.37 GiB
Duration                                 : 2h 12mn
Overall bit rate mode                    : Variable
Overall bit rate                         : 1 484 Kbps
Writing application                      : VirtualDubMod 1.5.10.2 (build 2540/release)
Writing library                          : VirtualDubMod build 2540/release

Video
ID                                       : 0
Format                                   : MPEG-4 Visual
Format profile                           : Advanced Simple@L5
Format settings, BVOP                    : 2
Format settings, QPel                    : No
Format settings, GMC                     : No warppoints
Format settings, Matrix                  : Default (H.263)
Muxing mode                              : Packed bitstream
Codec ID                                 : XVID
Codec ID/Hint                            : XviD
Duration                                 : 2h 12mn
Bit rate                                 : 1 344 Kbps
Width                                    : 624 pixels
Height                                   : 352 pixels
Display aspect ratio                     : 16:9
Frame rate                               : 23.976 fps
Color space                              : YUV
Chroma subsampling                       : 4:2:0
Bit depth                                : 8 bits
Scan type                                : Progressive
Compression mode                         : Lossy
Bits/(Pixel*Frame)                       : 0.255
Stream size                              : 1.24 GiB (91%)
Writing library                          : XviD 64

Audio
ID                                       : 1
Format                                   : MPEG Audio
Format version                           : Version 1
Format profile                           : Layer 3
Mode                                     : Joint stereo
Mode extension                           : MS Stereo
Codec ID                                 : 55
Codec ID/Hint                            : MP3
Duration                                 : 2h 12mn
Bit rate mode                            : Variable
Bit rate                                 : 128 Kbps
Channel(s)                               : 2 channels
Sampling rate                            : 48.0 KHz
Compression mode                         : Lossy
Stream size                              : 120 MiB (9%)
Alignment                                : Aligned on interleaves
Interleave, duration                     : 24 ms (0.58 video frame)
Interleave, preload duration             : 144 ms






Release notes:
enjoy!


                                                                     
                                                             
                                                               
                                                               
                       
      
              Greetz from Team FiCO:               
              
                                                             
                                                             
           BLooDWeiSeR,CULTXviD,SiCK,DoNE,LAP,TH30R1STS              
                                                                             
               WinBeta, DvF, WASTE, BERC, KALEVALA, Jiggly                   
                                                                             
                                                             
                                       
                             
                      
                  
           
            
                    
                  
                
                            
                                        
                                        
                                            
                                                    
                                                              
                      you know where to find us...                     
                        
   NFO By: CoaXCable/CoolPHat &lt;#CPH&gt;